<svg width="640" height="428" viewBox="0 0 640 428" fill="none" xmlns="http://www.w3.org/2000/svg">
<path d="M525.702 99.5937H147.222C136.226 99.5937 127.311 108.508 127.311 119.505V342.571C127.311 353.568 136.226 362.482 147.222 362.482H525.702C536.698 362.482 545.613 353.568 545.613 342.571V119.505C545.613 108.508 536.698 99.5937 525.702 99.5937Z" fill="white" stroke="#D1D5DB" stroke-width="2.84444"/>
<path d="M485.835 118.92H456.846C452.295 118.92 448.605 122.61 448.605 127.161C448.605 131.712 452.295 135.402 456.846 135.402H485.835C490.386 135.402 494.076 131.712 494.076 127.161C494.076 122.61 490.386 118.92 485.835 118.92Z" fill="white" stroke="#D1D5DB" stroke-width="2.84444"/>
<path d="M424.636 118.92H395.647C391.096 118.92 387.406 122.61 387.406 127.161C387.406 131.712 391.096 135.402 395.647 135.402H424.636C429.187 135.402 432.877 131.712 432.877 127.161C432.877 122.61 429.187 118.92 424.636 118.92Z" fill="white" stroke="#D1D5DB" stroke-width="2.84444"/>
<path d="M371.678 127.161C371.678 122.61 367.988 118.92 363.437 118.92C358.886 118.92 355.197 122.61 355.197 127.161C355.197 131.712 358.886 135.402 363.437 135.402C367.988 135.402 371.678 131.712 371.678 127.161Z" fill="white" stroke="#D1D5DB" stroke-width="2.84444"/>
<path d="M236.168 271.968V271.613H235.812H179.949V252.57L228.687 175.785H259.134V252.123V252.478H259.489H273.66V271.613H259.489H259.134V271.968V292.202H236.168V271.968ZM236.27 252.478H236.625V252.123V202.424V202.068H236.27H235.354H235.158L235.054 202.234L204.228 251.018L204.173 251.105V251.208V252.123V252.478H204.528H236.27ZM289.498 234.109V234.108C289.527 214.97 293.991 199.988 302.068 189.798C310.136 179.619 321.838 174.184 336.439 174.184C351.012 174.184 362.743 179.633 370.833 189.82C378.931 200.017 383.41 214.999 383.381 234.107C383.353 253.36 378.902 268.529 370.831 278.877C362.769 289.213 351.067 294.775 336.44 294.775C321.784 294.747 310.039 289.156 301.962 278.812C293.877 268.458 289.441 253.303 289.498 234.109ZM456.196 271.968V271.613H455.841H399.977V252.57L448.715 175.785H479.162V252.123V252.478H479.518H493.689V271.613H479.518H479.162V271.968V292.202H456.196V271.968ZM456.298 252.478H456.654V252.123V202.424V202.068H456.298H455.383H455.187L455.082 202.234L424.256 251.018L424.201 251.105V251.208V252.123V252.478H424.557H456.298ZM314.008 234.107C313.98 247.633 316.142 257.827 320.032 264.652C323.932 271.496 329.575 274.954 336.439 274.954C343.276 274.954 348.905 271.496 352.798 264.652C356.68 257.827 358.842 247.633 358.814 234.107C358.814 220.78 356.637 210.715 352.754 203.969C348.861 197.204 343.246 193.775 336.439 193.775C329.605 193.775 323.99 197.204 320.097 203.969C316.214 210.715 314.037 220.78 314.008 234.107Z" fill="#E5E7EB" stroke="#D1D5DB" stroke-width="0.711111"/>
<path d="M167.145 125.551C167.145 121.889 164.176 118.92 160.514 118.92C156.852 118.92 153.884 121.889 153.884 125.551C153.884 129.213 156.852 132.181 160.514 132.181C164.176 132.181 167.145 129.213 167.145 125.551Z" fill="white" stroke="#D1D5DB" stroke-width="2.84444"/>
<path d="M132.763 276.517C137.41 276.517 141.178 280.285 141.178 284.932C141.178 289.579 137.41 293.347 132.763 293.347C128.116 293.347 124.348 289.579 124.348 284.932C124.348 280.285 128.116 276.517 132.763 276.517Z" fill="#00767D"/>
<path d="M552.11 185.669C546.474 188.923 539.268 186.992 536.014 181.357C532.761 175.721 534.692 168.515 540.327 165.262C545.963 162.008 553.169 163.939 556.422 169.574C559.676 175.21 557.745 182.416 552.11 185.669Z" fill="#00767D"/>
<path d="M323.53 127.085C323.53 131.738 327.303 135.511 331.956 135.511C336.61 135.511 340.382 131.738 340.382 127.085C340.382 122.431 336.61 118.659 331.956 118.659C327.303 118.659 323.53 122.431 323.53 127.085Z" fill="#E5E7EB" stroke="#D1D5DB" stroke-width="0.711111"/>
<path d="M226.958 106.246C233.413 106.246 238.645 101.014 238.645 94.559C238.645 88.1044 233.413 82.8719 226.958 82.8719C220.504 82.8719 215.271 88.1044 215.271 94.559C215.271 101.014 220.504 106.246 226.958 106.246Z" fill="#00767D"/>
<path d="M394.037 306.731C388.7 306.731 384.373 311.058 384.373 316.394C384.373 321.731 388.7 326.058 394.037 326.058C399.374 326.058 403.7 321.731 403.7 316.394C403.7 311.058 399.374 306.731 394.037 306.731Z" fill="#00767D"/>
<path d="M206.77 334.939C206.77 339.648 210.587 343.466 215.296 343.466C220.005 343.466 223.822 339.648 223.822 334.939C223.822 330.231 220.005 326.413 215.296 326.413C210.587 326.413 206.77 330.231 206.77 334.939Z" fill="#E5E7EB" stroke="#D1D5DB" stroke-width="0.711111"/>
<path d="M306.318 310.922C308.058 307.908 307.026 304.055 304.012 302.315C300.999 300.575 297.146 301.608 295.406 304.621C293.666 307.635 294.698 311.488 297.712 313.228C300.725 314.967 304.579 313.935 306.318 310.922Z" fill="#E5E7EB" stroke="#D1D5DB" stroke-width="0.711111"/>
<path d="M511.848 129.42L523.954 117.313C524.257 117.011 524.746 117.011 525.048 117.313C525.35 117.615 525.35 118.105 525.048 118.407L512.942 130.513C512.64 130.815 512.15 130.815 511.848 130.514C511.546 130.212 511.546 129.722 511.848 129.42Z" fill="#E5E7EB" stroke="#D1D5DB" stroke-width="0.711111"/>
<path d="M519.278 129.473L522.77 125.982C523.072 125.68 523.562 125.68 523.864 125.982C524.165 126.283 524.165 126.773 523.863 127.075L520.372 130.567C520.07 130.869 519.58 130.869 519.278 130.567C518.976 130.265 518.976 129.775 519.278 129.473Z" fill="#E5E7EB" stroke="#D1D5DB" stroke-width="0.711111"/>
<path d="M139.737 341.882L150.57 331.049C150.826 330.794 151.24 330.794 151.496 331.049L151.496 331.05C151.752 331.305 151.752 331.72 151.496 331.975L140.663 342.808C140.408 343.064 139.993 343.064 139.738 342.808L139.737 342.808C139.482 342.552 139.482 342.138 139.737 341.882Z" fill="#E5E7EB" stroke="#D1D5DB" stroke-width="0.711111"/>
<path d="M146.386 341.929L149.51 338.805C149.766 338.549 150.18 338.549 150.435 338.805L150.436 338.805C150.691 339.061 150.691 339.475 150.436 339.73L147.311 342.855C147.056 343.111 146.642 343.111 146.386 342.855L146.386 342.855C146.13 342.599 146.13 342.185 146.386 341.929Z" fill="#E5E7EB" stroke="#D1D5DB" stroke-width="0.711111"/>
<path d="M118.51 98.9332L97.5685 119.875C96.9447 120.498 95.9335 120.498 95.3098 119.875C94.686 119.251 94.686 118.24 95.3098 117.616L116.251 96.6745C116.875 96.0507 117.886 96.0507 118.51 96.6745C119.134 97.2982 119.134 98.3095 118.51 98.9332Z" fill="#E5E7EB" stroke="#D1D5DB" stroke-width="0.711111"/>
<path d="M105.659 98.8415L99.6193 104.881C98.9956 105.505 97.9843 105.505 97.3606 104.881C96.7369 104.257 96.7369 103.246 97.3606 102.622L103.4 96.5827C104.024 95.959 105.035 95.959 105.659 96.5827C106.283 97.2065 106.283 98.2177 105.659 98.8415Z" fill="#E5E7EB" stroke="#D1D5DB" stroke-width="0.711111"/>
<path d="M528.205 330.397L513.463 345.14C513.065 345.538 512.42 345.538 512.022 345.14C511.624 344.742 511.624 344.096 512.022 343.698L526.764 328.956C527.162 328.558 527.807 328.558 528.205 328.956C528.603 329.354 528.603 329.999 528.205 330.397Z" fill="#E5E7EB" stroke="#D1D5DB" stroke-width="0.711111"/>
<path d="M519.158 330.333L514.906 334.585C514.508 334.983 513.863 334.983 513.465 334.585C513.067 334.187 513.067 333.542 513.465 333.144L517.717 328.892C518.115 328.494 518.76 328.494 519.158 328.892C519.556 329.29 519.556 329.935 519.158 330.333Z" fill="#E5E7EB" stroke="#D1D5DB" stroke-width="0.711111"/>
<mask id="path-22-inside-1_16_667" fill="white">
<path fill-rule="evenodd" clip-rule="evenodd" d="M503.772 73.8941H506.121C506.689 73.8941 507.147 74.3564 507.147 74.9196V77.2691C507.147 77.8373 506.684 78.2945 506.121 78.2945H503.772C503.209 78.2945 502.746 77.8323 502.746 77.2691V74.9196C502.746 74.7848 502.772 74.6514 502.824 74.5268C502.875 74.4023 502.951 74.2891 503.046 74.1939C503.141 74.0986 503.254 74.0231 503.379 73.9716C503.504 73.9202 503.637 73.8939 503.772 73.8941ZM511.917 73.8941H514.267C514.83 73.8941 515.292 74.3564 515.292 74.9196V77.2691C515.292 77.8373 514.83 78.2945 514.267 78.2945H511.917C511.354 78.2945 510.892 77.8323 510.892 77.2691V74.9196C510.892 74.3564 511.354 73.8941 511.917 73.8941ZM520.069 73.8941H522.418C522.982 73.8941 523.445 74.3564 523.445 74.9196V77.2691C523.445 77.8373 522.982 78.2945 522.418 78.2945H520.069C519.506 78.2945 519.044 77.8323 519.044 77.2691V74.9196C519.043 74.7848 519.07 74.6514 519.121 74.5268C519.172 74.4023 519.248 74.2891 519.343 74.1939C519.439 74.0986 519.552 74.0231 519.676 73.9716C519.801 73.9202 519.934 73.8939 520.069 73.8941ZM528.215 73.8941H530.565C531.128 73.8941 531.59 74.3564 531.59 74.9196V77.2691C531.59 77.8373 531.128 78.2945 530.565 78.2945H528.215C527.943 78.2943 527.682 78.1864 527.489 77.9943C527.296 77.8021 527.187 77.5414 527.185 77.2691V74.9196C527.188 74.6477 527.298 74.3878 527.49 74.196C527.683 74.0042 527.944 73.8958 528.215 73.8941ZM536.362 73.8941H538.711C539.28 73.8941 539.742 74.3564 539.742 74.9196V77.2691C539.742 77.8373 539.28 78.2945 538.711 78.2945H536.362C535.799 78.2945 535.337 77.8323 535.337 77.2691V74.9196C535.337 74.3564 535.799 73.8941 536.362 73.8941ZM512.216 82.7773H514.566C515.13 82.7773 515.592 83.2396 515.592 83.8028V86.1573C515.592 86.7205 515.13 87.1827 514.566 87.1827H512.216C511.648 87.1827 511.191 86.7205 511.191 86.1573V83.8077C511.19 83.6726 511.216 83.5386 511.267 83.4136C511.318 83.2885 511.394 83.1748 511.489 83.079C511.584 82.9832 511.698 82.9073 511.822 82.8555C511.947 82.8037 512.081 82.7772 512.216 82.7773ZM520.363 82.7773H522.712C523.275 82.7773 523.738 83.2396 523.738 83.8028V86.1573C523.738 86.7205 523.275 87.1827 522.712 87.1827H520.363C519.799 87.1827 519.337 86.7205 519.337 86.1573V83.8077C519.336 83.6726 519.362 83.5386 519.413 83.4136C519.465 83.2885 519.54 83.1748 519.635 83.079C519.731 82.9832 519.844 82.9073 519.969 82.8555C520.094 82.8037 520.228 82.7772 520.363 82.7773ZM528.509 82.7773H530.859C531.427 82.7773 531.889 83.2396 531.889 83.8028V86.1573C531.888 86.4296 531.778 86.6903 531.585 86.8824C531.392 87.0746 531.131 87.1825 530.859 87.1827H528.509C527.946 87.1827 527.484 86.7205 527.484 86.1573V83.8077C527.484 83.2396 527.946 82.7773 528.509 82.7773ZM520.069 64.351H522.418C522.982 64.351 523.445 64.8133 523.445 65.3765V67.7267C523.445 68.2941 522.982 68.7521 522.418 68.7521H520.069C519.506 68.7521 519.044 68.2899 519.044 67.7267V65.3765C519.043 65.2417 519.07 65.1082 519.121 64.9837C519.172 64.8592 519.248 64.746 519.343 64.6507C519.439 64.5555 519.552 64.4799 519.676 64.4285C519.801 64.3771 519.934 64.3507 520.069 64.351ZM528.215 64.351H530.565C531.128 64.351 531.59 64.8133 531.59 65.3765V67.7267C531.59 68.2941 531.128 68.7521 530.565 68.7521H528.215C527.943 68.7519 527.682 68.644 527.489 68.4519C527.296 68.2597 527.187 67.999 527.185 67.7267V65.3765C527.188 65.1046 527.298 64.8447 527.49 64.6529C527.683 64.4611 527.944 64.3527 528.215 64.351ZM79.4048 350.9H81.7543C82.3225 350.9 82.7797 351.363 82.7797 351.926V354.275C82.7797 354.843 82.3175 355.301 81.7543 355.301H79.4048C78.8416 355.301 78.3794 354.838 78.3794 354.275V351.926C78.3791 351.791 78.4054 351.658 78.4569 351.533C78.5083 351.408 78.5838 351.295 78.6791 351.2C78.7744 351.105 78.8875 351.029 79.0121 350.978C79.1366 350.926 79.2701 350.9 79.4048 350.9ZM87.5506 350.9H89.9001C90.464 350.9 90.9262 351.363 90.9262 351.926V354.275C90.9262 354.843 90.464 355.301 89.9001 355.301H87.5506C86.9874 355.301 86.5252 354.838 86.5252 354.275V351.926C86.5252 351.363 86.9874 350.9 87.5506 350.9ZM95.7021 350.9H98.0523C98.6155 350.9 99.0777 351.363 99.0777 351.926V354.275C99.0777 354.843 98.6155 355.301 98.0523 355.301H95.7021C95.1389 355.301 94.6766 354.838 94.6766 354.275V351.926C94.6765 351.791 94.7028 351.658 94.7543 351.533C94.8058 351.409 94.8813 351.296 94.9766 351.2C95.0718 351.105 95.1849 351.029 95.3094 350.978C95.4339 350.927 95.5673 350.9 95.7021 350.9ZM103.849 350.9H106.198C106.761 350.9 107.223 351.363 107.223 351.926V354.275C107.223 354.843 106.761 355.301 106.198 355.301H103.849C103.576 355.301 103.315 355.193 103.122 355C102.929 354.808 102.82 354.548 102.818 354.275V351.926C102.821 351.654 102.931 351.394 103.124 351.202C103.316 351.01 103.577 350.902 103.849 350.9ZM111.995 350.9H114.345C114.913 350.9 115.375 351.363 115.375 351.926V354.275C115.375 354.843 114.913 355.301 114.345 355.301H111.995C111.432 355.301 110.97 354.838 110.97 354.275V351.926C110.97 351.363 111.432 350.9 111.995 350.9ZM87.85 359.784H90.1995C90.7627 359.784 91.2249 360.246 91.2249 360.809V363.163C91.2249 363.727 90.7627 364.189 90.1995 364.189H87.85C87.2818 364.189 86.8238 363.727 86.8238 363.163V360.814C86.8232 360.679 86.8492 360.545 86.9005 360.42C86.9518 360.295 87.0273 360.181 87.1227 360.085C87.218 359.99 87.3314 359.914 87.4562 359.862C87.581 359.81 87.7148 359.783 87.85 359.784ZM95.9958 359.784H98.3453C98.9085 359.784 99.3707 360.246 99.3707 360.809V363.163C99.3707 363.727 98.9085 364.189 98.3453 364.189H95.9958C95.4326 364.189 94.9703 363.727 94.9703 363.163V360.814C94.9695 360.679 94.9954 360.545 95.0466 360.42C95.0977 360.295 95.1732 360.181 95.2685 360.085C95.3638 359.989 95.4771 359.913 95.602 359.862C95.7268 359.81 95.8606 359.783 95.9958 359.784ZM104.142 359.784H106.492C107.06 359.784 107.522 360.246 107.522 360.809V363.163C107.521 363.436 107.411 363.697 107.218 363.889C107.025 364.081 106.764 364.189 106.492 364.189H104.142C103.579 364.189 103.117 363.727 103.117 363.163V360.814C103.117 360.246 103.579 359.784 104.142 359.784ZM95.7028 341.357H98.0523C98.6155 341.357 99.0777 341.819 99.0777 342.383V344.733C99.0777 345.301 98.6155 345.758 98.0523 345.758H95.7028C95.1389 345.758 94.6766 345.296 94.6766 344.733V342.383C94.6764 342.249 94.7027 342.115 94.7542 341.99C94.8056 341.866 94.8812 341.752 94.9766 341.657C95.0719 341.562 95.1851 341.486 95.3098 341.435C95.4344 341.383 95.5679 341.357 95.7028 341.357ZM103.849 341.357H106.198C106.761 341.357 107.223 341.819 107.223 342.383V344.733C107.223 345.301 106.761 345.758 106.198 345.758H103.849C103.576 345.758 103.315 345.65 103.122 345.458C102.929 345.266 102.82 345.005 102.818 344.733V342.383C102.821 342.111 102.931 341.851 103.123 341.659C103.316 341.467 103.577 341.359 103.849 341.357Z"/>
</mask>
<path fill-rule="evenodd" clip-rule="evenodd" d="M503.772 73.8941H506.121C506.689 73.8941 507.147 74.3564 507.147 74.9196V77.2691C507.147 77.8373 506.684 78.2945 506.121 78.2945H503.772C503.209 78.2945 502.746 77.8323 502.746 77.2691V74.9196C502.746 74.7848 502.772 74.6514 502.824 74.5268C502.875 74.4023 502.951 74.2891 503.046 74.1939C503.141 74.0986 503.254 74.0231 503.379 73.9716C503.504 73.9202 503.637 73.8939 503.772 73.8941ZM511.917 73.8941H514.267C514.83 73.8941 515.292 74.3564 515.292 74.9196V77.2691C515.292 77.8373 514.83 78.2945 514.267 78.2945H511.917C511.354 78.2945 510.892 77.8323 510.892 77.2691V74.9196C510.892 74.3564 511.354 73.8941 511.917 73.8941ZM520.069 73.8941H522.418C522.982 73.8941 523.445 74.3564 523.445 74.9196V77.2691C523.445 77.8373 522.982 78.2945 522.418 78.2945H520.069C519.506 78.2945 519.044 77.8323 519.044 77.2691V74.9196C519.043 74.7848 519.07 74.6514 519.121 74.5268C519.172 74.4023 519.248 74.2891 519.343 74.1939C519.439 74.0986 519.552 74.0231 519.676 73.9716C519.801 73.9202 519.934 73.8939 520.069 73.8941ZM528.215 73.8941H530.565C531.128 73.8941 531.59 74.3564 531.59 74.9196V77.2691C531.59 77.8373 531.128 78.2945 530.565 78.2945H528.215C527.943 78.2943 527.682 78.1864 527.489 77.9943C527.296 77.8021 527.187 77.5414 527.185 77.2691V74.9196C527.188 74.6477 527.298 74.3878 527.49 74.196C527.683 74.0042 527.944 73.8958 528.215 73.8941ZM536.362 73.8941H538.711C539.28 73.8941 539.742 74.3564 539.742 74.9196V77.2691C539.742 77.8373 539.28 78.2945 538.711 78.2945H536.362C535.799 78.2945 535.337 77.8323 535.337 77.2691V74.9196C535.337 74.3564 535.799 73.8941 536.362 73.8941ZM512.216 82.7773H514.566C515.13 82.7773 515.592 83.2396 515.592 83.8028V86.1573C515.592 86.7205 515.13 87.1827 514.566 87.1827H512.216C511.648 87.1827 511.191 86.7205 511.191 86.1573V83.8077C511.19 83.6726 511.216 83.5386 511.267 83.4136C511.318 83.2885 511.394 83.1748 511.489 83.079C511.584 82.9832 511.698 82.9073 511.822 82.8555C511.947 82.8037 512.081 82.7772 512.216 82.7773ZM520.363 82.7773H522.712C523.275 82.7773 523.738 83.2396 523.738 83.8028V86.1573C523.738 86.7205 523.275 87.1827 522.712 87.1827H520.363C519.799 87.1827 519.337 86.7205 519.337 86.1573V83.8077C519.336 83.6726 519.362 83.5386 519.413 83.4136C519.465 83.2885 519.54 83.1748 519.635 83.079C519.731 82.9832 519.844 82.9073 519.969 82.8555C520.094 82.8037 520.228 82.7772 520.363 82.7773ZM528.509 82.7773H530.859C531.427 82.7773 531.889 83.2396 531.889 83.8028V86.1573C531.888 86.4296 531.778 86.6903 531.585 86.8824C531.392 87.0746 531.131 87.1825 530.859 87.1827H528.509C527.946 87.1827 527.484 86.7205 527.484 86.1573V83.8077C527.484 83.2396 527.946 82.7773 528.509 82.7773ZM520.069 64.351H522.418C522.982 64.351 523.445 64.8133 523.445 65.3765V67.7267C523.445 68.2941 522.982 68.7521 522.418 68.7521H520.069C519.506 68.7521 519.044 68.2899 519.044 67.7267V65.3765C519.043 65.2417 519.07 65.1082 519.121 64.9837C519.172 64.8592 519.248 64.746 519.343 64.6507C519.439 64.5555 519.552 64.4799 519.676 64.4285C519.801 64.3771 519.934 64.3507 520.069 64.351ZM528.215 64.351H530.565C531.128 64.351 531.59 64.8133 531.59 65.3765V67.7267C531.59 68.2941 531.128 68.7521 530.565 68.7521H528.215C527.943 68.7519 527.682 68.644 527.489 68.4519C527.296 68.2597 527.187 67.999 527.185 67.7267V65.3765C527.188 65.1046 527.298 64.8447 527.49 64.6529C527.683 64.4611 527.944 64.3527 528.215 64.351ZM79.4048 350.9H81.7543C82.3225 350.9 82.7797 351.363 82.7797 351.926V354.275C82.7797 354.843 82.3175 355.301 81.7543 355.301H79.4048C78.8416 355.301 78.3794 354.838 78.3794 354.275V351.926C78.3791 351.791 78.4054 351.658 78.4569 351.533C78.5083 351.408 78.5838 351.295 78.6791 351.2C78.7744 351.105 78.8875 351.029 79.0121 350.978C79.1366 350.926 79.2701 350.9 79.4048 350.9ZM87.5506 350.9H89.9001C90.464 350.9 90.9262 351.363 90.9262 351.926V354.275C90.9262 354.843 90.464 355.301 89.9001 355.301H87.5506C86.9874 355.301 86.5252 354.838 86.5252 354.275V351.926C86.5252 351.363 86.9874 350.9 87.5506 350.9ZM95.7021 350.9H98.0523C98.6155 350.9 99.0777 351.363 99.0777 351.926V354.275C99.0777 354.843 98.6155 355.301 98.0523 355.301H95.7021C95.1389 355.301 94.6766 354.838 94.6766 354.275V351.926C94.6765 351.791 94.7028 351.658 94.7543 351.533C94.8058 351.409 94.8813 351.296 94.9766 351.2C95.0718 351.105 95.1849 351.029 95.3094 350.978C95.4339 350.927 95.5673 350.9 95.7021 350.9ZM103.849 350.9H106.198C106.761 350.9 107.223 351.363 107.223 351.926V354.275C107.223 354.843 106.761 355.301 106.198 355.301H103.849C103.576 355.301 103.315 355.193 103.122 355C102.929 354.808 102.82 354.548 102.818 354.275V351.926C102.821 351.654 102.931 351.394 103.124 351.202C103.316 351.01 103.577 350.902 103.849 350.9ZM111.995 350.9H114.345C114.913 350.9 115.375 351.363 115.375 351.926V354.275C115.375 354.843 114.913 355.301 114.345 355.301H111.995C111.432 355.301 110.97 354.838 110.97 354.275V351.926C110.97 351.363 111.432 350.9 111.995 350.9ZM87.85 359.784H90.1995C90.7627 359.784 91.2249 360.246 91.2249 360.809V363.163C91.2249 363.727 90.7627 364.189 90.1995 364.189H87.85C87.2818 364.189 86.8238 363.727 86.8238 363.163V360.814C86.8232 360.679 86.8492 360.545 86.9005 360.42C86.9518 360.295 87.0273 360.181 87.1227 360.085C87.218 359.99 87.3314 359.914 87.4562 359.862C87.581 359.81 87.7148 359.783 87.85 359.784ZM95.9958 359.784H98.3453C98.9085 359.784 99.3707 360.246 99.3707 360.809V363.163C99.3707 363.727 98.9085 364.189 98.3453 364.189H95.9958C95.4326 364.189 94.9703 363.727 94.9703 363.163V360.814C94.9695 360.679 94.9954 360.545 95.0466 360.42C95.0977 360.295 95.1732 360.181 95.2685 360.085C95.3638 359.989 95.4771 359.913 95.602 359.862C95.7268 359.81 95.8606 359.783 95.9958 359.784ZM104.142 359.784H106.492C107.06 359.784 107.522 360.246 107.522 360.809V363.163C107.521 363.436 107.411 363.697 107.218 363.889C107.025 364.081 106.764 364.189 106.492 364.189H104.142C103.579 364.189 103.117 363.727 103.117 363.163V360.814C103.117 360.246 103.579 359.784 104.142 359.784ZM95.7028 341.357H98.0523C98.6155 341.357 99.0777 341.819 99.0777 342.383V344.733C99.0777 345.301 98.6155 345.758 98.0523 345.758H95.7028C95.1389 345.758 94.6766 345.296 94.6766 344.733V342.383C94.6764 342.249 94.7027 342.115 94.7542 341.99C94.8056 341.866 94.8812 341.752 94.9766 341.657C95.0719 341.562 95.1851 341.486 95.3098 341.435C95.4344 341.383 95.5679 341.357 95.7028 341.357ZM103.849 341.357H106.198C106.761 341.357 107.223 341.819 107.223 342.383V344.733C107.223 345.301 106.761 345.758 106.198 345.758H103.849C103.576 345.758 103.315 345.65 103.122 345.458C102.929 345.266 102.82 345.005 102.818 344.733V342.383C102.821 342.111 102.931 341.851 103.123 341.659C103.316 341.467 103.577 341.359 103.849 341.357Z" fill="#E5E7EB" stroke="#D1D5DB" stroke-width="1.42222" mask="url(#path-22-inside-1_16_667)"/>
<path fill-rule="evenodd" clip-rule="evenodd" d="M128.627 232.578C111.105 232.578 96.8994 218.171 96.8994 200.403C96.8994 182.634 111.105 168.229 128.627 168.229C146.149 168.229 160.355 182.634 160.355 200.403C160.355 218.171 146.149 232.578 128.627 232.578Z" fill="#00767D"/>
<path d="M141.409 186.75L128.006 201.049L119.959 192.47" fill="white"/>
<path d="M141.409 186.75L128.006 201.049L119.959 192.47" stroke="white" stroke-width="5.26578" stroke-linecap="round" stroke-linejoin="round"/>
<path d="M114.615 214.738L128.019 200.439L136.065 209.017" fill="white"/>
<path d="M114.615 214.738L128.019 200.439L136.065 209.017" stroke="white" stroke-width="5.26578" stroke-linecap="round" stroke-linejoin="round"/>
</svg>
