<svg width="228" height="252" viewBox="0 0 228 252" fill="none" xmlns="http://www.w3.org/2000/svg">
<g clip-path="url(#clip0_102_446)">
<path d="M113.855 239.855C176.736 239.855 227.711 188.881 227.711 126C227.711 63.1194 176.736 12.1446 113.855 12.1446C50.9748 12.1446 0 63.1194 0 126C0 188.881 50.9748 239.855 113.855 239.855Z" fill="url(#paint0_linear_102_446)"/>
<g filter="url(#filter0_d_102_446)">
<path d="M48.5782 78.1808H179.132C182.905 78.1808 185.964 81.2393 185.964 85.0121V244.41C185.964 248.183 182.905 251.241 179.132 251.241H48.5782C44.8053 251.241 41.7468 248.183 41.7468 244.41V85.0121C41.7468 81.2393 44.8053 78.1808 48.5782 78.1808Z" fill="#F9FAFB" stroke="#B0D5D7" stroke-width="1.51807"/>
</g>
<path d="M98.6745 100.193H59.2046C56.6894 100.193 54.6504 102.232 54.6504 104.747C54.6504 107.262 56.6894 109.301 59.2046 109.301H98.6745C101.19 109.301 103.229 107.262 103.229 104.747C103.229 102.232 101.19 100.193 98.6745 100.193Z" fill="#B0D5D7"/>
<path d="M126 119.928H59.2046C56.6894 119.928 54.6504 121.967 54.6504 124.482C54.6504 126.997 56.6894 129.036 59.2046 129.036H126C128.515 129.036 130.554 126.997 130.554 124.482C130.554 121.967 128.515 119.928 126 119.928Z" fill="#54A3A8"/>
<path d="M98.6745 141.181H59.2046C56.6894 141.181 54.6504 143.22 54.6504 145.735C54.6504 148.25 56.6894 150.289 59.2046 150.289H98.6745C101.19 150.289 103.229 148.25 103.229 145.735C103.229 143.22 101.19 141.181 98.6745 141.181Z" fill="#B0D5D7"/>
<path d="M126 160.916H59.2046C56.6894 160.916 54.6504 162.955 54.6504 165.47C54.6504 167.985 56.6894 170.024 59.2046 170.024H126C128.515 170.024 130.554 167.985 130.554 165.47C130.554 162.955 128.515 160.916 126 160.916Z" fill="#54A3A8"/>
<path d="M98.6745 182.169H59.2046C56.6894 182.169 54.6504 184.208 54.6504 186.723C54.6504 189.238 56.6894 191.277 59.2046 191.277H98.6745C101.19 191.277 103.229 189.238 103.229 186.723C103.229 184.208 101.19 182.169 98.6745 182.169Z" fill="#B0D5D7"/>
<path d="M126 201.904H59.2046C56.6894 201.904 54.6504 203.943 54.6504 206.458C54.6504 208.973 56.6894 211.012 59.2046 211.012H126C128.515 211.012 130.554 208.973 130.554 206.458C130.554 203.943 128.515 201.904 126 201.904Z" fill="#54A3A8"/>
<g filter="url(#filter1_d_102_446)">
<path d="M179.132 0H48.5782C44.3861 0 40.9878 3.39832 40.9878 7.59036V53.1325C40.9878 57.3246 44.3861 60.7229 48.5782 60.7229H179.132C183.324 60.7229 186.723 57.3246 186.723 53.1325V7.59036C186.723 3.39832 183.324 0 179.132 0Z" fill="#00767D"/>
</g>
<path d="M98.6745 16.6988H59.2046C56.6894 16.6988 54.6504 18.7378 54.6504 21.253C54.6504 23.7682 56.6894 25.8072 59.2046 25.8072H98.6745C101.19 25.8072 103.229 23.7682 103.229 21.253C103.229 18.7378 101.19 16.6988 98.6745 16.6988Z" fill="#B0D5D7"/>
<path opacity="0.5" d="M126 36.4337H59.2046C56.6894 36.4337 54.6504 38.4727 54.6504 40.9879C54.6504 43.5031 56.6894 45.5421 59.2046 45.5421H126C128.515 45.5421 130.554 43.5031 130.554 40.9879C130.554 38.4727 128.515 36.4337 126 36.4337Z" fill="#F9FAFB"/>
</g>
<defs>
<filter id="filter0_d_102_446" x="31.8794" y="63.7591" width="163.952" height="192.795" filterUnits="userSpaceOnUse" color-interpolation-filters="sRGB">
<feFlood flood-opacity="0" result="BackgroundImageFix"/>
<feColorMatrix in="SourceAlpha" type="matrix" values="0 0 0 0 0 0 0 0 0 0 0 0 0 0 0 0 0 0 127 0" result="hardAlpha"/>
<feOffset dy="-4.55422"/>
<feGaussianBlur stdDeviation="4.55422"/>
<feColorMatrix type="matrix" values="0 0 0 0 0.788235 0 0 0 0 0.803922 0 0 0 0 0.85098 0 0 0 0.349 0"/>
<feBlend mode="normal" in2="BackgroundImageFix" result="effect1_dropShadow_102_446"/>
<feBlend mode="normal" in="SourceGraphic" in2="effect1_dropShadow_102_446" result="shape"/>
</filter>
<filter id="filter1_d_102_446" x="31.8794" y="-13.6627" width="163.952" height="78.9398" filterUnits="userSpaceOnUse" color-interpolation-filters="sRGB">
<feFlood flood-opacity="0" result="BackgroundImageFix"/>
<feColorMatrix in="SourceAlpha" type="matrix" values="0 0 0 0 0 0 0 0 0 0 0 0 0 0 0 0 0 0 127 0" result="hardAlpha"/>
<feOffset dy="-4.55422"/>
<feGaussianBlur stdDeviation="4.55422"/>
<feColorMatrix type="matrix" values="0 0 0 0 0.788235 0 0 0 0 0.803922 0 0 0 0 0.85098 0 0 0 0.349 0"/>
<feBlend mode="normal" in2="BackgroundImageFix" result="effect1_dropShadow_102_446"/>
<feBlend mode="normal" in="SourceGraphic" in2="effect1_dropShadow_102_446" result="shape"/>
</filter>
<linearGradient id="paint0_linear_102_446" x1="114" y1="240" x2="114" y2="8.00001" gradientUnits="userSpaceOnUse">
<stop stop-color="#8AC0C3"/>
<stop offset="1" stop-color="#E6F1F2"/>
</linearGradient>
<clipPath id="clip0_102_446">
<rect width="227.711" height="252" fill="white"/>
</clipPath>
</defs>
</svg>
