<svg width="31" height="26" viewBox="0 0 31 26" fill="none" xmlns="http://www.w3.org/2000/svg">
<path d="M6.4125 11.9135L14.4116 16.0313C14.9213 16.2936 15.527 16.2902 16.0336 16.0221L19.725 14.069M6.4125 11.9135L3.07162 10.1937C1.79582 9.53695 1.80656 7.70922 3.08999 7.0675L14.4302 1.39738C14.9298 1.14759 15.5185 1.15085 16.0153 1.40616L27.0481 7.07615C28.3084 7.72386 28.3191 9.52173 27.0666 10.1844L24.225 11.688M6.4125 11.9135V17.2579C6.4125 18.4491 6.85857 19.6218 7.87546 20.2423C9.44771 21.2017 11.9815 22.1875 15.225 22.1875C17.625 22.1875 19.875 21.5125 19.875 21.5125M16.35 7.7125L24.225 11.688M24.225 11.688V19.6375M24.225 19.6375L23.4292 20.3883C22.6686 21.1058 22.2375 22.1052 22.2375 23.1508V24.2128C22.2375 24.3311 22.2911 24.4428 22.3919 24.5048C22.6711 24.6768 23.3168 25 24.225 25C25.1338 25 25.7594 24.6764 26.0277 24.5045C26.1244 24.4425 26.175 24.3337 26.175 24.2188V23.1294C26.175 22.0963 25.7542 21.1078 25.0095 20.3918L24.225 19.6375Z" stroke="#00767D" stroke-width="1.94757" stroke-linecap="round"/>
</svg>
